<svg width="512" height="512" viewBox="0 0 512 512" fill="none" xmlns="http://www.w3.org/2000/svg">
<path d="M224.02 159.914C224.02 168.979 216.771 175.779 208.147 175.779C199.085 175.779 191.821 168.979 191.821 159.914C191.82 124.56 220.848 96 255.766 96C291.153 96 320.18 124.56 320.18 159.914C320.18 189.372 300.213 214.755 272.092 222.009V229.262L461.662 304.943C487.065 315.373 512 328.99 512 359.815C512 390.609 486.597 416 455.757 416H56.228C25.403 416 0 390.609 0 359.815C0 328.99 24.95 315.373 49.885 304.943L239.893 229.262V207.955C239.893 199.343 247.158 192.098 255.766 192.098C273.467 192.098 287.965 177.591 287.965 159.914C287.965 142.237 273.467 128.184 255.766 128.184C238.08 128.184 224.02 142.237 224.02 159.914ZM449.852 334.862L255.766 256.918L62.133 334.862C51.244 338.953 32.199 345.761 32.199 359.815C32.199 372.932 42.636 383.832 56.227 383.832H455.756C469.38 383.832 479.784 372.933 479.784 359.815C479.785 345.762 460.756 338.953 449.852 334.862Z" fill="#5B68E2"/>
</svg>
